<svg xmlns="http://www.w3.org/2000/svg" viewBox="0 0 24 24" width="24" height="24" role="img" aria-label="OutlinedAlbum">
  <title>OutlinedAlbum</title>
  <path d="M4.60 12.00 C4.60 7.91 7.91 4.60 12.00 4.60 C16.09 4.60 19.40 7.91 19.40 12.00 C19.40 16.09 16.09 19.40 12.00 19.40 C7.91 19.40 4.60 16.09 4.60 12.00 Z" fill="none" stroke="#E2E8F0" stroke-width="1.9" stroke-linecap="round" stroke-linejoin="round"/>
  <path d="M9.90 12.00 C9.90 10.84 10.84 9.90 12.00 9.90 C13.16 9.90 14.10 10.84 14.10 12.00 C14.10 13.16 13.16 14.10 12.00 14.10 C10.84 14.10 9.90 13.16 9.90 12.00 Z" fill="#E2E8F0" stroke="#E2E8F0" stroke-width="1.9" stroke-linecap="round" stroke-linejoin="round"/>
  <path d="M7.8 12H9l.5-1.3.6 2.5.5-2.1.4.9h.5" fill="none" stroke="#E2E8F0" stroke-width="1.9" stroke-linecap="round" stroke-linejoin="round"/>
</svg>
