<svg xmlns="http://www.w3.org/2000/svg" viewBox="0 0 24 24" width="24" height="24" role="img" aria-label="Settings">
  <title>Settings</title>
  <path d="M8.90 12.00 C8.90 10.29 10.29 8.90 12.00 8.90 C13.71 8.90 15.10 10.29 15.10 12.00 C15.10 13.71 13.71 15.10 12.00 15.10 C10.29 15.10 8.90 13.71 8.90 12.00 Z" fill="none" stroke="#E2E8F0" stroke-width="1.9" stroke-linecap="round" stroke-linejoin="round"/>
  <path d="M12 4.2v2.9M12 16.9v2.9M4.2 12h2.9M16.9 12h2.9M6.5 6.5l2 2M15.5 15.5l2 2M17.5 6.5l-2 2M8.5 15.5l-2 2M10.4 12H11l.4-1.1.6 2.3.4-1.7.4.5h.7" fill="none" stroke="#E2E8F0" stroke-width="1.9" stroke-linecap="round" stroke-linejoin="round"/>
</svg>
